<svg id="visual" viewBox="0 0 900 600" width="900" height="600" xmlns="http://www.w3.org/2000/svg" xmlns:xlink="http://www.w3.org/1999/xlink" version="1.1"><path d="M0 43L82 97L164 61L245 55L327 67L409 61L491 85L573 37L655 55L736 43L818 43L900 97L900 0L818 0L736 0L655 0L573 0L491 0L409 0L327 0L245 0L164 0L82 0L0 0Z" fill="#0f0d23"></path><path d="M0 271L82 253L164 235L245 229L327 301L409 247L491 265L573 355L655 277L736 145L818 187L900 325L900 95L818 41L736 41L655 53L573 35L491 83L409 59L327 65L245 53L164 59L82 95L0 41Z" fill="#131529"></path><path d="M0 367L82 337L164 343L245 283L327 391L409 373L491 409L573 421L655 415L736 313L818 361L900 421L900 323L818 185L736 143L655 275L573 353L491 263L409 245L327 299L245 227L164 233L82 251L0 269Z" fill="#171b2f"></path><path d="M0 451L82 409L164 391L245 391L327 451L409 457L491 505L573 499L655 529L736 397L818 421L900 463L900 419L818 359L736 311L655 413L573 419L491 407L409 371L327 389L245 281L164 341L82 335L0 365Z" fill="#1c2135"></path><path d="M0 601L82 601L164 601L245 601L327 601L409 601L491 601L573 601L655 601L736 601L818 601L900 601L900 461L818 419L736 395L655 527L573 497L491 503L409 455L327 449L245 389L164 389L82 407L0 449Z" fill="#21273b"></path></svg>